#!OML:ASF F:\VICON\USERDATA\Patient Classification 1\PLAYGROUND\JustinFriday\JustinFriday.ASF
:FULLY-SPECIFIED
:DEGREES
2645
root 12.6636 16.9456 14.5224 -721.357 -187.833 1.92602
lowerback 15.7747 0.931918 -0.591088
upperback 3.05311 1.56545 0.759665
thorax -5.6249 0.943642 0.804624
lowerneck -3.88074 -3.3011 -6.28305
upperneck -0.718342 -4.12411 7.68515
head 0.776759 -1.95409 3.51576
rclavicle 2.75938e-014 8.10048e-015
rhumerus 40.3863 11.3219 -63.7663
rradius 68.812
rwrist 374.967
rhand -36.0214 -27.8694
rfingers 7.12502
rthumb -9.13042 -57.6517
lclavicle 2.75938e-014 8.10048e-015
lhumerus 42.6757 -7.63143 62.3153
lradius 67.0096
lwrist -18.4472
lhand -27.6817 -3.49832
lfingers 7.12502
lthumb -1.07847 26.4787
rfemur -36.2389 -7.10901 27.6396
rtibia 20.209
rfoot -13.6044 -6.28218
rtoes -6.2376
lfemur 4.76725 0.749545 -16.1522
ltibia 45.0343
lfoot -18.9291 3.32311
ltoes -31.9281
2646
root 12.6975 16.9241 14.3538 -721.505 -187.826 1.78822
lowerback 15.808 0.848373 -0.533343
upperback 3.22244 1.47372 0.598478
thorax -5.45549 0.904483 0.621069
lowerneck -3.87527 -3.2695 -6.00751
upperneck -0.736313 -4.09195 7.42138
head 0.752453 -1.94168 3.37211
rclavicle 3.65267e-015 8.64713e-015
rhumerus 42.3807 11.0133 -63.8509
rradius 66.4747
rwrist 375.725
rhand -36.5393 -29.2234
rfingers 7.12502
rthumb -9.63012 -58.9833
lclavicle 3.65267e-015 8.64713e-015
lhumerus 44.5735 -7.27224 61.7402
lradius 64.588
lwrist -18.6682
lhand -27.2311 -3.88393
lfingers 7.12502
lthumb -0.643326 26.0948
rfemur -35.8465 -6.79826 27.4
rtibia 20.158
rfoot -12.2647 -6.17928
rtoes -7.92136
lfemur 4.37643 0.847848 -16.0019
ltibia 46.7511
lfoot -17.8571 1.93322
ltoes -32.2438
2647
root 12.73 16.907 14.1912 -721.693 -187.775 1.96852
lowerback 16.0529 0.72752 -0.132786
upperback 3.39281 1.40451 0.546644
thorax -5.39644 0.875905 0.350122
lowerneck -4.0755 -3.23764 -5.5954
upperneck -0.657794 -4.05971 6.97169
head 0.786643 -1.92747 3.13643
rclavicle -4.42296e-015 -9.54166e-015
rhumerus 44.3273 10.7723 -63.7677
rradius 64.2214
rwrist 376.179
rhand -36.1031 -29.6573
rfingers 7.12502
rthumb -9.20931 -59.4362
lclavicle -4.42296e-015 -9.54166e-015
lhumerus 46.4639 -6.97068 61.2826
lradius 62.0884
lwrist -18.7008
lhand -26.8098 -3.95918
lfingers 7.12502
lthumb -0.236354 26.0204
rfemur -35.4968 -6.47672 27.5025
rtibia 20.6535
rfoot -11.073 -6.05166
rtoes -8.9474
lfemur 3.82662 0.902076 -15.477
ltibia 48.711
lfoot -16.3022 0.32053
ltoes -31.94
2648
root 12.7603 16.8794 14.0319 -722.064 -187.747 2.28758
lowerback 16.6497 0.597083 0.448169
upperback 3.52891 1.36773 0.538944
thorax -5.56228 0.863821 0.00964984
lowerneck -4.31801 -3.19696 -5.20746
upperneck -0.379304 -4.02573 6.53559
head 0.893173 -1.9127 2.91131
rclavicle -7.87684e-015 -3.27995e-015
rhumerus 45.8942 10.5465 -63.6515
rradius 62.2944
rwrist 376.487
rhand -35.0449 -29.1978
rfingers 7.12502
rthumb -8.18815 -59.0191
lclavicle -7.87684e-015 -3.27995e-015
lhumerus 48.1558 -6.78674 60.5837
lradius 59.7096
lwrist -18.7492
lhand -26.0108 -3.63639
lfingers 7.12502
lthumb 0.535268 26.3427
rfemur -35.0851 -6.43198 27.8785
rtibia 21.5491
rfoot -10.0184 -5.45463
rtoes -9.19756
lfemur 3.18772 0.954284 -14.8265
ltibia 50.9797
lfoot -14.4766 -1.02153
ltoes -33.8329
